<?xml version="1.0" standalone="no"?>
<!DOCTYPE svg PUBLIC "-//W3C//DTD SVG 20010904//EN"
 "http://www.w3.org/TR/2001/REC-SVG-20010904/DTD/svg10.dtd">
<svg version="1.0" xmlns="http://www.w3.org/2000/svg"
 width="5462.000000pt" height="3875.000000pt" viewBox="0 0 5462.000000 3875.000000"
 preserveAspectRatio="xMidYMid meet">

<g transform="translate(0.000000,3875.000000) scale(0.100000,-0.100000)"
fill="#000000" stroke="none">
<path d="M40112 22889 c2 -17 25 -30 113 -64 158 -60 220 -87 400 -177 217
-109 337 -179 555 -323 716 -474 1380 -1166 1907 -1990 116 -181 114 -178 57
-124 -206 193 -475 368 -779 507 -393 179 -963 328 -1470 386 -71 8 -179 27
-238 41 -179 42 -445 84 -607 95 -227 15 -639 -14 -777 -55 -57 -17 -77 -45
-50 -73 48 -48 362 -62 818 -38 255 14 351 15 501 7 173 -10 195 -13 339 -55
357 -102 703 -251 814 -350 47 -42 49 -45 33 -62 -25 -25 -174 -29 -403 -10
-347 28 -866 41 -1127 28 -640 -33 -1108 -126 -1420 -283 -111 -56 -191 -121
-186 -152 5 -34 31 -43 90 -29 400 91 773 130 1477 153 507 18 983 -7 1301
-66 127 -24 414 -96 425 -107 7 -6 1 -7 -15 -4 -48 11 -346 45 -505 58 -232
18 -830 15 -1085 -6 -250 -20 -484 -48 -690 -82 -257 -43 -420 -98 -695 -234
-186 -92 -391 -217 -402 -245 -13 -35 13 -38 119 -17 126 26 250 45 428 66 74
9 150 18 168 20 17 3 32 1 32 -3 0 -5 -26 -12 -57 -16 -72 -8 -300 -58 -414
-90 -227 -64 -337 -121 -450 -234 -127 -127 -202 -252 -365 -609 l-102 -223
-98 -35 -99 -34 -145 6 c-724 28 -2768 20 -7060 -26 -966 -11 -3883 -50 -5975
-80 -374 -6 -1017 -14 -1430 -20 -734 -10 -1385 -24 -1575 -35 -52 -3 -336
-15 -630 -25 -294 -11 -755 -29 -1025 -40 -944 -38 -1864 -69 -2355 -80 -305
-7 -1830 -13 -3965 -15 -3013 -4 -3609 -7 -4525 -24 -580 -11 -1136 -23 -1235
-26 -99 -3 -612 -1 -1140 4 -1740 18 -2748 24 -2878 16 -123 -7 -130 -8 -169
-39 -23 -17 -42 -36 -42 -41 0 -6 21 -24 47 -41 53 -37 91 -44 353 -74 l180
-20 14435 3 14434 3 655 22 c695 23 1545 47 1975 57 143 3 325 7 405 10 311
12 1718 44 2140 50 874 11 1488 28 2555 70 576 23 1513 56 1960 70 682 22
1497 29 4290 37 5156 15 5305 16 5305 32 0 36 -10 37 -844 34 -449 -2 -816 0
-816 3 0 3 24 9 53 12 134 16 222 68 233 137 10 60 -12 117 -54 145 -68 45
-110 48 -422 29 -264 -16 -311 -16 -637 -1 l-353 15 -106 88 c-59 48 -170 149
-248 224 -259 250 -341 309 -510 370 -53 19 -21 19 86 0 165 -30 228 -29 228
4 0 14 -440 442 -505 492 -182 139 -437 210 -1185 329 -393 62 -627 93 -783
102 -60 3 -103 10 -95 14 33 18 383 67 658 91 196 18 1010 17 1225 0 223 -18
465 -41 496 -48 28 -5 56 17 44 36 -3 6 -39 26 -78 46 -101 50 -110 60 -60 73
21 6 53 14 71 17 65 13 78 65 24 100 -15 9 -150 110 -300 223 -150 113 -291
220 -314 236 l-40 30 -306 -1 c-469 -1 -766 -39 -1303 -168 -581 -139 -1299
-437 -1899 -786 -218 -127 -459 -291 -549 -374 l-34 -31 28 50 c103 184 401
446 769 676 160 100 531 284 741 366 805 316 1867 520 2863 550 212 6 246 13
227 43 -9 15 0 12 -507 176 l-449 145 -202 -26 c-1229 -156 -2432 -679 -3319
-1442 -189 -163 -327 -334 -394 -488 -16 -36 -31 -65 -34 -65 -3 0 -22 46 -44
103 -120 316 -330 701 -618 1133 -216 325 -526 728 -804 1044 -241 275 -578
595 -714 677 -111 68 -375 141 -705 197 -218 36 -531 76 -604 76 -38 0 -42 -2
-39 -21z m498 -88 c363 -55 703 -141 817 -207 168 -98 547 -475 883 -879 606
-728 1044 -1431 1270 -2038 l33 -88 -16 -72 c-9 -39 -19 -88 -23 -108 -5 -30
-12 -39 -44 -53 -79 -35 -141 -128 -221 -328 -53 -136 -148 -329 -195 -400
l-38 -58 -96 0 c-52 0 -115 5 -138 11 -90 20 -546 90 -812 124 -537 68 -871
88 -1435 88 -918 0 -1904 -85 -2535 -219 -63 -13 -120 -24 -127 -24 -25 0 203
477 292 610 100 150 218 255 350 312 209 90 623 176 1130 234 212 24 251 26
495 20 441 -10 946 -53 1415 -122 658 -96 1001 -175 1296 -298 108 -45 169
-55 192 -31 9 9 17 24 17 32 0 27 -80 95 -170 145 -306 169 -761 281 -1400
345 -143 14 -274 17 -720 17 -362 0 -587 -4 -670 -12 -69 -7 -276 -17 -460
-22 -425 -11 -782 -45 -1018 -96 -37 -8 -18 10 56 54 161 96 382 196 552 251
504 162 1666 222 2415 125 157 -20 323 -49 465 -80 238 -53 689 -296 944 -509
43 -36 90 -68 105 -71 14 -3 31 -7 38 -9 20 -6 63 35 63 60 0 149 -337 346
-872 511 -100 31 -202 65 -227 76 -84 36 -333 118 -465 153 -392 103 -717 135
-1356 135 -350 0 -689 -14 -977 -40 -294 -27 -640 -80 -721 -111 -49 -19 -32
0 35 39 261 154 764 268 1338 303 246 15 926 6 1175 -15 315 -27 475 -21 523
21 23 21 22 68 -3 104 -22 30 -153 121 -235 162 -75 37 -238 106 -340 143 -49
18 -82 33 -72 34 36 1 416 -80 558 -119 889 -245 1492 -649 1758 -1178 31 -62
46 -83 61 -83 33 0 24 33 -50 175 -485 933 -1201 1789 -1985 2375 -207 154
-257 188 -455 308 -145 88 -528 284 -612 313 -44 15 -51 31 -10 24 15 -3 115
-18 222 -34z m7300 -1260 c394 -128 419 -137 427 -145 3 -3 -32 -6 -78 -6
-143 0 -562 -35 -844 -71 -1126 -141 -2103 -451 -2780 -884 -271 -174 -584
-441 -691 -591 -92 -129 -120 -235 -63 -242 21 -2 36 7 70 46 127 144 582 429
1054 662 615 302 1247 513 1838 615 319 54 456 67 784 72 172 3 327 3 346 -1
21 -4 79 -41 153 -98 65 -50 206 -156 312 -234 l193 -143 -43 -11 c-109 -26
-142 -67 -94 -115 14 -14 26 -27 26 -28 0 -1 -89 6 -197 15 -266 24 -1021 35
-1270 19 -333 -21 -609 -58 -868 -116 -118 -27 -194 -37 -322 -44 -646 -38
-1235 -225 -1482 -472 -130 -131 -136 -222 -12 -204 104 16 440 142 926 350
318 136 422 178 565 228 103 36 127 41 235 45 151 6 411 -12 625 -43 1116
-160 1440 -244 1645 -425 56 -50 385 -370 385 -375 0 -1 -138 23 -307 52 -202
35 -345 66 -415 88 -203 66 -393 116 -588 155 -334 66 -425 75 -775 75 -335
-1 -416 -8 -710 -65 -82 -16 -202 -36 -265 -45 -644 -92 -1202 -271 -1441
-460 -64 -51 -88 -88 -73 -113 27 -43 60 -33 526 157 383 156 748 282 1038
359 119 32 344 47 695 47 350 0 454 -8 900 -71 303 -42 777 -120 825 -136 116
-36 416 -151 475 -181 93 -46 136 -81 362 -294 104 -98 215 -198 246 -223 31
-25 56 -48 57 -52 0 -4 -28 -5 -62 -3 -334 26 -593 30 -1918 30 -778 0 -1557
4 -1730 9 -311 8 -639 -1 -800 -24 -66 -10 -323 -24 -611 -34 l-156 -6 -7 49
c-16 122 -107 418 -159 515 -17 32 -51 80 -75 107 -39 44 -46 60 -78 179 l-34
130 25 66 c68 180 197 352 395 525 727 635 1698 1112 2730 1343 239 53 728
131 765 121 6 -1 152 -48 325 -104z m-7750 -366 c202 -22 215 -29 70 -36 -431
-22 -929 -22 -903 1 10 8 165 28 313 39 174 13 377 12 520 -4z m5619 -999 c-2
-2 -107 -47 -234 -99 -126 -53 -356 -148 -509 -212 -430 -178 -679 -266 -698
-247 -12 12 76 117 136 162 226 171 645 316 1076 374 63 9 126 17 140 20 37 5
94 7 89 2z m-2891 -380 c158 -71 320 -176 355 -229 57 -87 8 -91 -89 -7 -79
69 -260 195 -381 264 -46 26 -83 50 -83 52 0 5 78 -26 198 -80z m-1438 -51
c558 -41 967 -122 1285 -254 163 -67 329 -160 314 -176 -2 -2 -45 12 -94 31
-50 20 -124 49 -165 65 -150 58 -490 136 -890 203 -346 58 -1016 136 -1172
136 -37 0 -58 4 -58 12 0 15 490 4 780 -17z m5660 -99 c118 -17 395 -69 464
-87 66 -18 32 -21 -60 -5 -224 38 -680 89 -959 106 -116 7 -90 8 150 5 198 -2
326 -8 405 -19z m-1784 -165 c-3 -5 -18 -12 -33 -15 -80 -20 -534 -193 -896
-341 -76 -31 -141 -55 -144 -52 -11 11 128 102 242 157 147 72 361 144 600
204 255 63 238 60 231 47z m-1657 -93 c1 -20 -24 -24 -34 -7 -4 6 -4 31 1 57
l7 47 13 -40 c7 -22 13 -48 13 -57z m13 -87 c40 -38 66 -671 28 -671 -9 0 -36
86 -54 175 -30 147 -51 390 -41 465 7 50 8 51 34 45 14 -3 29 -10 33 -14z
m-119 -148 c7 -175 36 -371 72 -478 13 -38 22 -71 21 -73 -4 -3 -378 -22 -449
-22 l-57 0 30 53 c57 96 117 221 170 352 29 72 63 152 77 179 23 46 107 146
123 146 4 0 10 -71 13 -157z m252 -13 c46 -91 132 -374 148 -492 l6 -38 -77 0
c-42 0 -86 -3 -97 -6 -20 -5 -20 0 -20 218 0 123 -3 264 -7 313 -7 83 -6 88 8
70 9 -11 26 -40 39 -65z m-2634 -410 c444 -25 1074 -97 1413 -161 49 -9 72
-19 45 -19 -8 0 -264 -16 -569 -35 -305 -19 -665 -39 -800 -46 -282 -13 -3026
-25 -3249 -14 -211 11 -184 25 183 95 422 80 1143 154 1741 179 297 12 1025
12 1236 1z"/>
<path d="M45802 17863 c-7 -3 -24 -30 -38 -62 -26 -57 -235 -685 -274 -821
-73 -255 -184 -616 -191 -624 -5 -6 -7 0 -4 12 2 12 5 237 7 499 2 429 1 484
-14 534 -10 31 -28 67 -41 81 -22 23 -31 25 -159 32 -74 4 -175 11 -224 16
-107 11 -156 1 -182 -37 -15 -25 -17 -64 -18 -423 -1 -380 -6 -733 -19 -1320
-4 -175 -3 -284 3 -301 l10 -26 -105 -7 c-59 -3 -157 -6 -220 -6 -112 0 -113
0 -109 23 17 81 23 287 10 321 -7 17 1 18 177 15 l184 -4 12 80 c15 101 16
209 2 258 l-10 37 -80 0 -80 0 6 58 c3 31 7 110 10 174 5 141 8 138 -120 138
l-85 0 7 28 c4 15 8 82 8 148 l0 122 59 6 c32 3 96 6 142 6 92 0 128 9 139 37
3 10 12 96 18 191 9 147 9 175 -4 187 -27 27 -243 39 -739 39 -261 1 -673 -5
-915 -12 -922 -28 -873 -25 -891 -44 -13 -13 -20 -52 -30 -160 -7 -79 -13
-155 -14 -169 l0 -26 -122 -9 -122 -9 -24 -35 c-20 -30 -23 -31 -18 -10 4 14
22 90 41 170 19 80 37 152 39 161 2 9 1 21 -3 26 -8 13 -164 86 -231 109 -30
10 -56 19 -58 20 -1 1 2 14 8 30 7 16 25 74 41 129 l29 100 -31 26 c-33 29
-132 68 -239 94 -36 9 -73 24 -82 32 -14 13 -21 13 -32 4 -34 -28 -324 -982
-516 -1696 -28 -104 -67 -238 -86 -297 -22 -67 -34 -121 -32 -144 l3 -38 90
-31 c50 -17 119 -45 155 -63 l65 -32 -191 6 c-193 6 -256 -1 -267 -29 -2 -7 0
-52 4 -100 5 -48 10 -118 12 -155 3 -61 5 -67 28 -73 13 -3 265 -4 559 -2 432
4 2232 3 3570 -1 168 -1 273 3 334 13 76 13 179 13 710 3 342 -6 664 -9 716
-7 742 40 1523 56 2320 48 553 -5 1117 -8 1471 -8 1 0 4 81 8 180 l6 180 81
-3 c67 -3 82 -1 95 14 11 13 15 62 17 230 4 201 3 213 -15 223 -13 7 -76 7
-194 1 -96 -5 -205 -10 -243 -10 l-68 0 24 33 c93 121 147 332 126 492 -15
118 -20 121 -201 134 -80 6 -160 11 -176 11 -30 0 -31 2 -31 41 0 22 9 62 20
88 l21 47 44 -43 c48 -45 91 -60 152 -50 80 13 143 90 143 174 0 52 -48 119
-105 148 -22 11 -41 20 -42 21 -2 0 13 29 31 65 59 110 80 233 56 320 -14 50
-72 113 -128 140 -54 26 -62 34 -62 71 0 45 -42 140 -80 179 -90 94 -228 68
-260 -50 -9 -34 -8 -52 4 -95 17 -58 62 -127 101 -152 l25 -16 -39 -46 c-154
-185 -239 -535 -188 -779 16 -73 16 -73 -74 -73 l-59 0 6 93 c7 100 -6 210
-36 288 l-17 47 47 35 c54 41 133 140 166 212 33 71 33 143 -2 184 -72 86
-233 -5 -326 -184 -21 -42 -38 -63 -46 -60 -8 3 -22 5 -32 5 -12 0 -22 12 -30
33 -19 57 -75 107 -120 107 -36 0 -86 -34 -106 -71 -33 -64 3 -156 72 -181 25
-9 33 -16 28 -28 -43 -103 -48 -127 -48 -250 -1 -104 3 -134 20 -181 l22 -56
-52 -7 c-28 -3 -70 -6 -93 -6 -68 0 -78 -25 -78 -185 1 -190 27 -288 106 -392
l39 -52 -53 -5 c-28 -3 -123 -12 -211 -20 -109 -10 -161 -18 -168 -28 -5 -7
-7 -88 -6 -180 3 -160 2 -167 -17 -172 -31 -9 -255 -7 -256 2 0 4 -2 16 -4 27
-2 11 -9 121 -15 245 -9 164 -9 325 -1 595 6 203 13 555 16 780 4 226 8 429
11 451 5 58 -21 89 -94 110 -48 14 -85 16 -227 10 -179 -6 -239 -15 -262 -39
-23 -23 -31 -80 -39 -267 -3 -96 -8 -176 -9 -178 -2 -2 -41 24 -86 58 -152
110 -171 123 -258 166 l-86 44 -21 -26 c-68 -84 -388 -693 -699 -1331 -110
-226 -201 -410 -202 -409 -5 4 133 436 298 934 94 282 169 520 167 530 -2 11
-59 38 -177 84 -96 37 -176 70 -179 72 -2 3 16 66 42 140 56 165 63 236 21
236 -7 0 -43 16 -78 35 -63 33 -224 86 -257 84 -8 0 -21 -3 -28 -6z m123 -68
c45 -13 112 -41 151 -61 56 -29 68 -40 66 -57 -1 -12 -25 -87 -51 -167 -27
-80 -65 -194 -86 -255 -20 -60 -79 -252 -131 -425 -82 -273 -271 -859 -279
-868 -3 -3 -294 116 -304 125 -8 6 30 153 91 353 32 107 92 310 133 450 84
287 262 825 294 888 12 23 24 42 28 42 4 0 43 -11 88 -25z m3649 -19 c51 -21
91 -88 109 -183 5 -27 3 -33 -11 -33 -9 0 -40 -12 -69 -26 -50 -26 -53 -26
-78 -10 -34 22 -81 97 -89 141 -8 43 15 102 46 115 33 13 54 12 92 -4z m-1694
-99 c35 -12 35 -12 41 -87 4 -41 5 -120 3 -175 -2 -55 -7 -221 -9 -370 -3
-148 -10 -444 -16 -657 -6 -213 -8 -427 -5 -475 3 -48 8 -151 11 -228 4 -77 8
-147 11 -156 7 -25 -33 -29 -303 -29 l-245 0 6 523 c13 1114 29 1614 53 1638
25 25 389 38 453 16z m-6505 -72 c50 -14 110 -35 133 -47 41 -19 43 -22 38
-54 -4 -18 -20 -73 -37 -121 -16 -48 -34 -108 -39 -133 -15 -82 -266 -1061
-336 -1313 -63 -229 -70 -248 -89 -244 -21 5 -165 67 -267 114 -32 15 -58 31
-58 37 0 38 365 1308 445 1551 85 255 82 247 103 241 9 -3 58 -17 107 -31z
m8332 -137 c-3 -28 -29 -84 -72 -158 -93 -160 -160 -304 -191 -407 -22 -72
-27 -109 -28 -205 l-1 -118 -27 0 c-42 0 -53 53 -52 245 0 144 3 169 27 248
75 243 217 437 321 437 28 0 28 -1 23 -42z m-4686 1 l188 -12 15 -31 c8 -17
18 -43 21 -58 l7 -28 -272 0 -272 0 6 43 c3 23 5 52 5 65 1 28 34 43 80 37 19
-2 119 -10 222 -16z m4793 -11 c47 -39 66 -81 66 -151 0 -113 -52 -229 -164
-362 -97 -116 -166 -247 -166 -316 l0 -49 -39 0 c-47 0 -51 8 -51 103 1 165
58 325 215 597 37 63 72 136 78 163 7 26 14 47 17 47 3 0 23 -14 44 -32z
m-2798 -44 c53 -29 275 -185 317 -224 8 -7 -28 -90 -39 -90 -2 0 -17 9 -32 19
-15 11 -108 68 -207 127 -99 59 -182 109 -184 110 -8 6 51 94 63 94 7 0 44
-16 82 -36z m2274 -19 c22 -26 7 -108 -31 -171 -37 -62 -141 -174 -161 -174
-7 1 -30 25 -50 55 l-37 54 29 58 c36 71 80 126 133 164 44 32 97 38 117 14z
m-3052 -129 c75 -29 144 -56 154 -59 14 -5 -7 -76 -152 -514 -93 -279 -203
-620 -245 -758 -42 -137 -92 -303 -112 -367 -20 -65 -40 -118 -46 -118 -37 0
-279 83 -305 105 -5 4 177 601 218 715 22 63 88 273 146 465 116 389 182 585
196 585 5 0 70 -24 146 -54z m917 -138 c55 -33 105 -64 112 -70 14 -11 6 -38
-11 -38 -14 0 -279 166 -362 227 -35 26 -60 51 -58 58 4 9 41 -9 112 -53 59
-36 152 -92 207 -124z m-1902 141 c3 -11 0 -22 -6 -24 -7 -2 -130 -6 -274 -8
l-263 -5 0 29 0 29 269 0 c263 0 269 0 274 -21z m3556 -10 c13 -12 30 -38 38
-57 14 -34 14 -36 -15 -65 -28 -27 -32 -29 -65 -18 -66 22 -87 92 -42 136 30
31 54 32 84 4z m-1839 -122 c69 -46 158 -103 198 -127 39 -23 72 -44 72 -46 0
-7 -405 -813 -528 -1051 -181 -350 -267 -494 -290 -486 -28 11 -323 163 -379
196 -29 17 -53 35 -53 39 0 4 8 15 19 25 10 10 105 196 210 413 194 399 370
746 509 1007 73 138 77 142 96 128 12 -8 77 -52 146 -98z m-5342 61 c136 -56
149 -67 136 -115 -6 -21 -10 -20 -122 33 -65 30 -121 59 -125 64 -13 12 2 50
19 50 9 0 50 -14 92 -32z m2640 25 l172 -6 0 -161 c0 -89 -4 -166 -8 -172 -13
-20 -95 -22 -786 -11 -523 7 -708 7 -805 -2 -69 -7 -228 -15 -353 -18 l-228
-6 0 170 0 170 143 7 c78 4 335 11 571 16 235 5 431 12 434 15 8 7 650 6 860
-2z m291 -20 l24 -6 -8 -133 c-9 -178 -12 -189 -56 -189 -21 0 -34 5 -33 13 1
6 2 82 3 167 1 154 1 155 24 155 12 0 33 -3 46 -7z m-2349 -178 l0 -165 -65 0
c-55 0 -65 3 -65 18 0 32 22 287 25 300 3 7 23 12 55 12 l50 0 0 -165z m3044
-212 c-3 -208 -12 -514 -20 -680 -8 -166 -14 -340 -14 -386 l0 -84 -52 -7
c-29 -3 -149 -9 -266 -13 l-213 -6 6 144 c7 192 19 865 19 1159 l1 235 60 6
c33 3 156 6 272 7 l213 2 -6 -377z m-3631 257 c65 -30 117 -60 117 -67 0 -20
-106 -450 -166 -672 -31 -113 -94 -357 -140 -541 -47 -184 -89 -349 -95 -367
l-10 -31 -131 64 c-103 51 -129 68 -125 82 74 253 201 728 291 1087 136 542
127 507 136 503 4 -2 59 -28 123 -58z m7387 11 c84 -120 128 -318 102 -466 -7
-37 -10 -40 -43 -43 l-36 -3 -6 178 c-4 143 -10 196 -29 271 -13 50 -21 92
-17 92 4 0 17 -13 29 -29z m-157 -53 c-17 -83 -22 -289 -10 -391 8 -68 7 -68
-15 -65 -18 2 -28 16 -46 68 -20 56 -22 79 -18 175 3 83 9 124 26 165 18 46
64 120 74 120 2 0 -4 -33 -11 -72z m112 -103 c8 -49 15 -150 15 -222 l0 -133
-39 0 c-37 0 -39 2 -45 38 -22 135 -15 346 16 457 l11 40 14 -45 c7 -25 20
-85 28 -135z m-1629 -137 c-3 -145 -9 -495 -12 -778 -3 -283 -7 -516 -8 -517
-9 -10 -664 -63 -778 -63 l-36 0 55 93 c74 122 374 705 598 1160 99 201 182
366 184 367 2 0 1 -118 -3 -262z m2508 158 c18 -8 46 -30 61 -50 23 -30 27
-43 22 -77 -10 -74 -82 -123 -154 -105 -32 9 -93 68 -93 91 0 19 107 155 121
155 6 0 25 -6 43 -14z m-5962 -126 l158 0 0 -89 c0 -48 -3 -115 -6 -148 l-7
-60 -361 -7 c-198 -3 -431 -10 -516 -15 -85 -4 -279 -4 -430 1 -269 9 -613 18
-698 18 l-43 0 3 143 3 142 380 1 c209 1 412 7 450 12 44 7 227 9 489 6 231
-2 491 -4 578 -4z m-1954 -157 l-3 -148 -41 -3 c-22 -2 -52 2 -67 7 l-27 11 0
118 c0 79 4 124 13 135 7 10 31 17 62 20 28 2 53 4 58 5 4 1 6 -64 5 -145z
m2278 121 c14 -21 16 -42 11 -136 -4 -61 -12 -117 -18 -124 -7 -9 -32 -14 -67
-14 l-55 0 7 77 c3 42 6 109 6 150 l0 73 50 0 c42 0 52 -4 66 -26z m-2452
-286 c10 -22 28 -28 103 -35 l62 -6 3 -159 3 -160 33 -29 c21 -19 43 -29 65
-29 49 0 59 -11 46 -47 -6 -18 -9 -80 -7 -142 l3 -111 -152 0 c-83 0 -163 -4
-177 -10 -49 -18 -61 -60 -61 -220 0 -80 4 -153 9 -162 8 -17 -3 -18 -148 -18
-86 0 -156 2 -156 4 0 10 186 740 248 971 38 143 78 296 88 340 l19 80 6 -125
c3 -69 9 -133 13 -142z m7611 16 c-11 -9 -44 -31 -73 -50 -49 -31 -60 -34
-125 -33 -50 0 -67 3 -57 10 61 39 134 78 153 82 12 2 45 5 72 5 47 1 49 0 30
-14z m265 9 c0 -5 -34 -27 -76 -51 -71 -41 -78 -43 -146 -40 l-70 3 73 47 c71
45 77 47 147 48 39 0 72 -3 72 -7z m-784 -12 c-3 -4 -33 -25 -67 -45 -42 -25
-72 -36 -101 -36 l-40 0 50 39 c37 29 61 41 93 44 24 2 50 4 57 5 7 1 11 -2 8
-7z m214 -36 c-80 -42 -90 -45 -165 -45 l-79 0 69 44 c70 45 70 45 165 45 l95
0 -85 -44z m810 40 c0 -2 -21 -16 -47 -31 -27 -15 -54 -32 -62 -38 -11 -9
-161 -17 -161 -9 0 1 28 21 63 43 58 37 67 40 135 40 39 0 72 -2 72 -5z
m-1230 -19 c0 -2 -11 -11 -25 -20 -24 -16 -25 -16 -25 4 0 15 7 20 25 20 14 0
25 -2 25 -4z m1313 -28 c3 -12 4 -25 1 -30 -7 -10 -94 -11 -94 0 0 8 68 51 81
52 4 0 9 -10 12 -22z m-7812 -168 c-2 -91 -6 -169 -8 -174 -9 -13 -126 4 -145
21 -16 14 -18 36 -18 163 0 81 3 150 7 153 3 4 43 6 87 5 l81 -3 -4 -165z
m579 151 c146 -4 337 -4 425 0 301 15 760 22 938 14 l177 -7 0 -155 0 -154
-247 3 c-137 2 -448 -3 -693 -10 -245 -7 -599 -15 -787 -19 l-343 -6 0 130 c0
72 3 152 7 178 l6 48 126 -7 c69 -4 245 -11 391 -15z m1684 1 c6 -10 -9 -300
-16 -307 -3 -3 -23 -3 -44 1 l-39 6 3 154 3 154 44 0 c24 0 46 -4 49 -8z
m5453 -72 l115 0 -7 -62 c-9 -75 -26 -142 -55 -221 -21 -57 -22 -58 -55 -51
-18 3 -49 0 -67 -6 -25 -9 -50 -10 -92 -3 -31 6 -72 7 -89 3 -22 -5 -48 -1
-82 13 -43 17 -56 18 -97 7 -39 -10 -54 -9 -96 6 -44 16 -57 17 -99 6 -30 -8
-70 -10 -105 -6 -38 4 -68 2 -88 -6 -25 -10 -41 -11 -84 0 -42 10 -61 10 -90
0 -30 -10 -43 -9 -74 3 -32 13 -45 13 -87 2 -46 -12 -51 -12 -67 6 -22 26 -49
151 -51 236 l-2 68 520 6 c286 3 547 4 579 2 32 -2 110 -3 173 -3z m-5524
-289 c4 -4 4 -67 1 -139 l-7 -132 -84 0 c-45 0 -83 -3 -83 -8 0 -10 -30 -11
-560 -23 -602 -14 -1227 -22 -1242 -16 -10 3 -12 40 -10 149 l3 145 512 12
c282 6 607 16 722 20 224 9 735 3 748 -8z m232 -106 c0 -55 -3 -116 -8 -135
l-7 -35 -85 3 -85 3 0 73 c0 40 3 101 6 135 l7 62 86 -3 86 -3 0 -100z m-2266
-60 l-1 -145 -82 0 c-50 0 -87 5 -94 12 -8 8 -12 49 -12 120 0 102 2 110 25
133 21 22 33 25 95 25 l71 0 -2 -145z m3136 46 c77 -33 141 -64 142 -68 1 -4
-22 -89 -51 -188 -41 -137 -52 -183 -43 -192 17 -16 142 -67 205 -84 40 -10
49 -15 35 -20 -21 -9 -408 -11 -438 -3 -19 5 -20 12 -17 197 3 241 12 417 21
417 4 0 70 -27 146 -59z m3437 39 c38 10 55 9 78 0 18 -8 44 -9 67 -5 21 4 67
7 103 6 36 -1 88 4 116 10 44 10 58 9 97 -6 39 -15 53 -16 95 -5 43 10 55 9
83 -5 29 -15 71 -20 119 -13 8 1 42 -2 74 -6 41 -6 70 -5 93 3 65 24 64 -19
-2 -58 -33 -19 -51 -21 -253 -22 -119 0 -298 5 -397 11 -99 7 -226 9 -282 6
l-102 -7 -41 37 c-22 20 -40 40 -40 43 0 4 17 12 38 17 27 7 46 6 71 -4 27
-11 43 -11 83 -2z m668 -146 c234 -3 498 -1 588 3 l162 8 0 -186 0 -186 -732
4 c-403 2 -853 6 -1000 10 l-266 6 -1 153 c-1 84 2 154 6 157 8 5 358 35 478
41 39 2 131 2 205 0 74 -3 326 -7 560 -10z m-8780 -104 c45 -24 28 -24 -25 0
-22 10 -33 19 -25 19 8 0 31 -8 50 -19z m3406 -6 c15 -4 23 -16 27 -37 5 -34
-10 -261 -19 -289 -5 -15 -18 -18 -90 -18 l-85 0 3 170 3 169 60 4 c33 2 65 4
70 5 6 1 20 -1 31 -4z m-213 -31 c3 -16 3 -92 0 -170 -5 -110 -9 -143 -20
-143 -10 0 -13 20 -14 83 0 45 -4 119 -7 165 -4 46 -5 85 -3 88 14 14 39 1 44
-23z m-99 8 c3 -5 9 -79 12 -165 l7 -156 -124 0 c-240 0 -1088 -19 -1391 -31
-169 -7 -311 -9 -315 -6 -8 9 -6 227 3 304 l6 52 457 -5 c251 -3 528 -1 616 4
213 12 722 14 729 3z m-2932 -111 l107 -52 -25 -66 c-13 -36 -26 -67 -27 -69
-2 -1 -39 14 -82 33 -44 20 -114 47 -155 61 -108 37 -108 37 -80 127 l23 74
66 -28 c36 -15 114 -51 173 -80z m37 53 c52 -24 91 -46 88 -50 -7 -6 -217 93
-217 102 0 6 25 -3 129 -52z m938 35 c-3 -13 -9 -94 -13 -180 l-7 -158 -58 0
c-52 0 -60 3 -78 29 -18 25 -21 44 -21 144 0 113 9 164 33 179 7 4 43 8 81 8
66 0 68 -1 63 -22z m99 -24 c-3 -26 -6 -107 -6 -180 l0 -134 -31 0 -32 0 7
158 c9 193 11 202 43 202 25 0 25 -2 19 -46z m4162 -177 c78 -39 142 -74 142
-77 0 -3 -92 -5 -205 -5 -137 -1 -205 3 -203 10 2 5 16 50 32 98 l28 88 31
-21 c18 -12 96 -53 175 -93z m-938 80 l0 -24 -192 -6 c-106 -4 -226 -10 -265
-13 l-73 -7 0 27 0 26 128 1 c70 1 174 5 232 9 183 12 170 13 170 -13z m-7
-111 c-5 -62 9 -59 -251 -51 -193 6 -240 10 -254 22 -37 33 -22 41 90 48 59 3
116 7 127 9 11 2 81 3 155 2 l135 -1 -2 -29z m-4053 -57 l95 -49 -105 6 c-146
8 -142 6 -123 54 9 22 21 40 27 39 6 0 54 -22 106 -50z m8100 41 c233 1 525
-2 647 -6 l224 -7 -3 -148 -3 -147 -355 -3 c-195 -1 -679 0 -1075 4 -419 4
-877 3 -1095 -3 -360 -9 -1036 -34 -1225 -45 -49 -3 -369 0 -711 7 -531 10
-634 10 -710 -3 -63 -10 -170 -14 -369 -13 -1684 6 -3041 5 -3501 -1 -332 -5
-563 -4 -566 1 -3 5 -9 67 -13 138 l-8 129 194 -7 c107 -4 265 -14 352 -22
131 -13 261 -15 755 -11 328 3 743 10 922 16 449 15 1946 35 2280 30 934 -14
1781 10 2280 66 74 8 230 15 345 16 116 1 300 5 410 9 110 4 335 6 500 3 165
-2 491 -4 725 -3z"/>
<path d="M45860 17716 c-15 -19 -9 -61 10 -61 17 0 40 42 33 61 -7 18 -27 18
-43 0z"/>
<path d="M45991 17661 c-8 -14 -7 -22 5 -32 14 -11 18 -10 29 5 16 21 9 46
-11 46 -7 0 -18 -9 -23 -19z"/>
<path d="M47503 17575 c-18 -13 -23 -26 -23 -64 0 -27 6 -53 13 -58 6 -6 78
-13 159 -16 172 -7 184 -3 194 74 5 40 3 49 -12 57 -11 5 -84 13 -164 16 -124
6 -148 5 -167 -9z m294 -49 c1 -1 -1 -12 -4 -25 -6 -22 -10 -23 -57 -17 -28 3
-86 6 -128 6 -77 0 -78 0 -78 26 l0 26 133 -7 c72 -4 133 -8 134 -9z"/>
<path d="M41281 17544 c-10 -23 -9 -30 4 -43 15 -15 17 -14 31 4 8 11 13 29
12 40 -5 30 -33 30 -47 -1z"/>
<path d="M41372 17538 c-7 -7 -12 -22 -12 -35 0 -33 37 -31 46 1 10 40 -10 58
-34 34z"/>
<path d="M41432 17508 c-7 -7 -12 -20 -12 -31 0 -13 6 -18 23 -15 16 2 22 10
22 27 0 28 -15 37 -33 19z"/>
<path d="M45700 15763 c-7 -16 -23 -59 -36 -97 l-24 -70 21 -22 c27 -29 77
-41 94 -23 18 18 65 145 65 175 0 27 -47 64 -82 64 -17 0 -29 -9 -38 -27z m70
-43 c0 -25 -45 -120 -56 -120 -19 0 -17 20 7 84 14 39 24 53 35 49 7 -3 14 -9
14 -13z"/>
<path d="M41181 15641 c-48 -48 -9 -141 59 -141 68 0 101 45 76 104 -17 40
-21 43 -73 52 -34 5 -45 2 -62 -15z m89 -51 c6 -11 8 -25 5 -30 -10 -16 -55
-12 -61 5 -16 41 35 64 56 25z"/>
<path d="M50162 15848 c-17 -21 2 -40 34 -36 21 2 29 8 29 23 0 24 -46 33 -63
13z"/>
<path d="M50173 15789 c-18 -18 -3 -39 27 -39 28 0 41 14 33 38 -6 15 -45 16
-60 1z"/>
<path d="M50173 15719 c-15 -15 -5 -39 16 -39 23 0 41 19 34 36 -6 17 -35 18
-50 3z"/>
<path d="M50170 15655 c-10 -12 -10 -19 -2 -27 8 -8 9 -15 1 -25 -16 -18 -3
-43 21 -43 24 0 38 26 22 42 -8 8 -7 15 5 23 21 15 10 45 -15 45 -11 0 -25 -7
-32 -15z"/>
<path d="M8010 17699 c-41 -11 -112 -37 -157 -59 -45 -22 -86 -40 -91 -40 -20
0 -35 -32 -34 -70 1 -21 23 -97 48 -170 26 -72 42 -135 38 -139 -7 -7 -153
-65 -314 -126 -19 -7 -36 -20 -38 -28 -2 -9 73 -247 167 -529 166 -503 291
-895 291 -914 0 -5 -134 261 -298 591 -401 806 -585 1145 -620 1145 -22 0
-200 -96 -247 -134 -61 -49 -176 -128 -180 -124 -1 1 -6 82 -10 179 -3 97 -10
194 -15 214 -8 36 -14 44 -51 65 -25 14 -294 33 -376 26 -84 -7 -147 -29 -165
-59 -16 -26 -16 -21 3 -842 8 -341 13 -730 12 -865 -2 -226 -14 -454 -24 -464
-2 -3 -65 -2 -139 1 l-135 6 3 171 c3 140 1 174 -10 184 -8 6 -99 19 -209 28
-107 9 -200 18 -207 20 -8 2 0 20 23 50 83 108 108 200 109 394 1 116 -2 139
-18 163 -17 25 -23 27 -90 27 -39 0 -81 3 -92 6 l-21 6 21 51 c17 44 20 73 20
182 0 132 0 132 -49 247 -5 13 1 20 28 32 44 18 87 80 87 124 0 86 -82 148
-155 118 -39 -17 -81 -66 -90 -106 -6 -26 -11 -30 -39 -30 -27 0 -35 6 -50 38
-87 182 -250 289 -332 219 -22 -19 -28 -34 -32 -81 -4 -50 0 -65 31 -129 38
-77 131 -188 178 -212 27 -14 28 -16 14 -47 -37 -91 -54 -260 -36 -355 l8 -43
-79 0 c-67 0 -79 2 -74 15 18 48 28 161 24 269 -6 136 -29 240 -82 365 -33 77
-111 206 -140 230 -12 10 -8 18 25 49 85 76 117 197 72 274 -57 97 -213 76
-275 -39 -24 -45 -39 -88 -53 -155 -4 -20 -17 -32 -49 -47 -59 -26 -119 -87
-134 -137 -26 -89 -8 -206 52 -325 l33 -67 -44 -21 c-55 -27 -103 -98 -103
-153 0 -86 65 -158 151 -166 67 -6 94 3 144 49 l45 41 20 -47 c11 -26 20 -66
20 -89 l0 -43 -171 -7 c-220 -8 -222 -9 -237 -132 -20 -150 25 -341 109 -467
l39 -59 -263 4 -262 3 -3 -170 c-3 -173 8 -264 33 -285 8 -7 49 -13 92 -13
l78 -2 5 -173 c4 -137 8 -175 20 -182 8 -5 19 -5 25 0 6 5 128 8 281 6 148 -2
616 0 1039 5 782 9 1157 3 1865 -26 633 -26 737 -27 1309 -16 509 11 576 10
690 -5 109 -14 191 -16 611 -10 567 8 1107 8 2697 2 889 -4 1164 -2 1170 7 4
7 8 21 9 32 4 88 16 253 20 266 14 50 -61 63 -294 52 -89 -4 -162 -6 -162 -3
0 8 122 61 220 95 84 30 85 30 88 66 2 21 -11 80 -32 145 -19 60 -67 226 -106
369 -216 788 -457 1582 -491 1619 -5 6 -24 3 -46 -7 -21 -9 -60 -22 -88 -28
-77 -19 -197 -66 -229 -92 l-28 -23 35 -114 c19 -63 38 -122 41 -131 5 -12 -3
-19 -36 -28 -53 -16 -243 -105 -251 -117 -3 -5 15 -92 39 -193 24 -101 42
-186 39 -189 -3 -3 -5 2 -5 12 0 9 -11 28 -25 41 -22 23 -31 25 -127 25 -57 0
-108 4 -114 8 -7 4 -18 77 -26 176 -12 133 -19 172 -32 181 -21 16 -177 24
-706 35 -239 5 -525 14 -635 20 -328 17 -1147 -4 -1197 -31 -19 -10 -20 -17
-13 -157 8 -176 17 -232 41 -249 10 -7 43 -13 73 -13 31 0 99 -3 151 -6 l95
-7 0 -111 c0 -61 3 -130 8 -153 l7 -43 -99 0 c-74 0 -100 -3 -104 -14 -6 -14
0 -208 8 -293 l5 -53 -74 0 c-56 0 -77 -4 -87 -17 -18 -20 -21 -177 -6 -286
l10 -78 185 7 184 7 -7 -24 c-13 -40 -5 -263 11 -321 5 -17 -7 -18 -163 -18
-92 0 -191 3 -220 6 -48 6 -51 8 -42 26 7 14 9 104 4 277 -11 477 -18 934 -19
1341 -1 295 -4 411 -13 426 -25 43 -61 49 -242 36 -91 -7 -194 -12 -227 -12
-102 0 -138 -45 -153 -195 -8 -74 -5 -898 4 -937 2 -10 0 -18 -4 -18 -9 0 -16
23 -137 435 -153 520 -339 1065 -365 1065 -4 0 -13 2 -21 4 -7 3 -47 -4 -88
-15z m96 -60 c28 -54 231 -672 314 -954 43 -148 101 -342 128 -430 49 -158 88
-313 80 -320 -6 -6 -289 -125 -297 -125 -10 0 -179 517 -276 840 -71 239 -109
358 -227 708 -26 79 -48 154 -48 166 0 18 15 31 70 59 53 28 169 70 237 86 1
1 10 -13 19 -30z m-3633 -49 c28 -56 7 -131 -56 -197 -35 -37 -56 -41 -93 -17
-13 9 -39 20 -57 23 -29 7 -32 10 -29 42 4 45 44 130 73 158 54 50 134 45 162
-9z m1878 -60 c64 -5 123 -12 132 -16 23 -8 27 -56 42 -424 14 -373 29 -1736
19 -1742 -5 -2 -129 -2 -277 0 l-268 4 6 32 c3 17 10 126 15 241 10 203 8 361
-19 1435 -4 184 -6 360 -4 392 4 50 8 57 31 67 58 22 151 25 323 11z m6407
-302 c84 -259 202 -663 336 -1143 97 -350 108 -394 101 -404 -3 -5 -40 -24
-83 -41 -42 -18 -116 -49 -164 -70 -48 -21 -89 -36 -92 -32 -11 18 -155 558
-241 902 -122 488 -158 627 -200 770 -52 174 -51 166 -20 186 30 19 228 83
261 84 18 0 30 -30 102 -252z m-8480 116 c100 -41 219 -221 278 -420 31 -108
43 -300 25 -409 -15 -87 -22 -99 -52 -92 -23 6 -24 9 -25 119 0 86 -5 133 -23
194 -26 92 -107 267 -200 428 -66 113 -84 171 -60 187 18 11 13 12 57 -7z
m-115 -49 c3 -20 38 -91 76 -159 158 -275 221 -449 221 -607 0 -87 -14 -112
-59 -107 -24 3 -27 8 -32 61 -9 82 -63 182 -165 308 -117 144 -164 248 -164
367 0 62 19 106 63 144 42 36 53 35 60 -7z m5024 23 c6 -7 13 -39 17 -70 l6
-58 -270 0 c-148 0 -270 4 -270 9 0 18 24 77 38 94 12 13 33 17 101 18 47 1
120 5 161 9 129 12 207 11 217 -2z m-2163 -63 c15 -25 27 -48 25 -49 -7 -7
-271 -167 -334 -203 -33 -19 -68 -42 -77 -50 -16 -15 -19 -12 -38 32 -23 55
-32 42 80 122 36 26 83 61 105 79 43 33 183 114 200 114 6 0 23 -20 39 -45z
m-2280 -26 c48 -32 125 -129 150 -191 15 -34 14 -36 -26 -89 -22 -30 -42 -56
-44 -58 -2 -2 -34 27 -71 65 -107 109 -156 222 -123 285 16 28 59 24 114 -12z
m3144 -211 c28 -84 96 -301 151 -483 55 -181 121 -391 146 -465 25 -74 80
-247 121 -385 41 -137 77 -258 80 -267 7 -23 -35 -44 -184 -89 l-123 -37 -13
32 c-7 17 -45 141 -85 276 -40 135 -162 515 -271 845 -174 525 -197 601 -182
607 53 22 298 118 303 118 3 0 29 -69 57 -152z m-801 126 c3 -10 -112 -89
-302 -208 -105 -67 -121 -74 -134 -61 -18 18 -16 21 124 105 55 33 143 87 195
119 93 57 111 65 117 45z m2118 -38 l0 -29 -105 4 c-58 2 -170 3 -250 1 -176
-3 -189 -1 -182 33 l4 25 267 -2 266 -3 0 -29z m-4026 9 c51 -26 56 -82 12
-126 -37 -37 -70 -37 -105 0 -26 27 -27 30 -13 63 12 29 59 78 74 78 2 0 17
-7 32 -15z m2378 -885 c185 -371 345 -683 355 -693 10 -10 18 -22 18 -27 0
-13 -96 -68 -279 -160 l-164 -83 -18 24 c-51 66 -218 382 -490 922 -165 329
-299 600 -297 601 1 1 73 46 158 99 85 54 182 117 215 140 l60 43 53 -95 c29
-53 204 -400 389 -771z m2958 840 c94 -5 384 -14 645 -20 261 -6 481 -12 488
-15 9 -3 12 -47 12 -171 l0 -166 -247 5 c-137 3 -331 10 -433 16 -132 8 -324
8 -670 0 -590 -13 -807 -11 -820 11 -15 24 -13 330 3 331 28 4 524 15 682 17
94 0 247 -3 340 -8z m1889 -16 c4 -15 6 -28 4 -29 -8 -8 -242 -115 -244 -112
-2 2 -7 17 -10 34 -6 28 -3 33 27 49 48 25 192 84 205 84 7 0 15 -12 18 -26z
m-2974 -148 c0 -85 3 -161 6 -170 5 -13 -1 -16 -34 -16 -38 0 -40 1 -45 38 -3
20 -9 94 -13 164 l-7 127 34 4 c19 2 40 5 47 5 9 2 12 -35 12 -152z m-244 120
c18 -6 19 -19 19 -238 0 -128 3 -366 7 -528 4 -162 8 -403 10 -535 l3 -240
-160 4 c-88 2 -205 7 -260 10 l-100 6 -2 55 c-1 30 -7 163 -13 295 -6 132 -13
292 -15 355 -3 63 -7 275 -10 470 l-5 355 254 -1 c139 -1 262 -5 272 -8z
m2640 -121 c7 -66 12 -139 13 -162 l1 -43 -65 0 -65 0 0 166 0 165 53 -3 52
-3 11 -120z m614 28 c5 -21 60 -236 121 -478 112 -447 168 -659 241 -910 22
-77 42 -149 45 -160 4 -18 -14 -29 -126 -82 l-131 -61 -19 66 c-11 37 -36 135
-56 217 -19 83 -79 312 -131 509 -92 348 -204 795 -204 817 0 10 214 117 237
118 7 1 17 -16 23 -36z m-7506 -20 c-27 -90 -44 -228 -44 -361 l0 -133 -37 3
c-35 3 -38 6 -45 43 -18 106 -1 255 42 352 22 52 81 143 92 143 3 0 0 -21 -8
-47z m176 -42 c55 -111 66 -266 27 -380 -20 -59 -47 -94 -62 -79 -3 3 -1 54 6
114 14 133 2 316 -28 409 -12 39 27 -6 57 -64z m-91 -6 c19 -110 24 -246 12
-344 -7 -52 -14 -97 -16 -101 -2 -3 -20 -4 -39 -2 l-36 4 0 133 c0 162 37 394
60 380 5 -3 13 -34 19 -70z m2300 -1418 c50 -87 91 -162 91 -166 0 -5 -19 -7
-42 -5 -24 2 -151 11 -283 19 -228 15 -426 32 -470 40 -19 4 -20 12 -20 302 0
164 -3 515 -7 780 l-7 483 324 -648 c178 -356 364 -718 414 -805z m-3135 1292
c31 -39 56 -78 56 -86 0 -8 -17 -33 -39 -54 -32 -33 -45 -39 -80 -39 -107 0
-163 91 -109 178 17 28 82 71 109 72 3 0 32 -32 63 -71z m6989 -80 c45 -5 228
-9 407 -8 179 0 333 0 343 0 15 -1 17 -15 17 -146 l0 -145 -192 0 c-106 0
-319 -5 -473 -12 -228 -9 -333 -9 -565 3 -157 8 -404 14 -550 14 l-265 0 -7
45 c-6 43 -11 250 -5 250 1 1 153 3 337 7 184 3 337 8 340 10 8 8 522 -7 613
-18z m-1343 -81 c0 -46 3 -113 7 -150 l6 -68 -61 0 c-59 0 -62 1 -69 28 -4 15
-8 76 -8 135 0 125 7 137 82 137 l43 0 0 -82z m2290 53 c11 -21 14 -229 4
-255 -5 -12 -21 -16 -70 -16 l-64 0 0 145 0 145 60 0 c48 0 61 -4 70 -19z
m187 -496 c74 -280 233 -901 233 -911 0 -2 -70 -4 -155 -4 -85 0 -155 4 -155
8 0 4 5 13 11 19 8 8 10 56 7 150 -4 144 -19 203 -56 219 -9 3 -89 9 -177 12
l-160 4 0 117 c0 64 -3 128 -7 142 -7 25 -5 27 32 33 109 17 120 39 120 234
l0 150 70 4 c102 5 104 9 109 171 l4 132 20 -80 c10 -44 57 -224 104 -400z
m-7803 147 c-68 -3 -74 -1 -145 40 l-74 43 75 5 75 5 70 -45 71 -45 -72 -3z
m-248 46 l66 -43 -70 -3 c-65 -3 -74 0 -133 35 -60 34 -62 37 -39 44 65 18
107 10 176 -33z m439 32 c3 -5 34 -25 68 -44 l62 -36 -72 0 c-68 0 -77 3 -140
41 -38 23 -70 43 -72 45 -2 2 30 4 72 4 42 0 78 -4 82 -10z m326 -32 c38 -24
69 -46 69 -50 0 -5 -30 -8 -67 -8 -61 0 -77 5 -155 46 -49 25 -88 47 -88 50 0
2 39 4 86 4 85 0 89 -1 155 -42z m214 -13 l50 -45 -37 0 c-27 0 -58 12 -105
41 -38 23 -70 43 -72 45 -2 2 22 4 55 4 55 -1 62 -3 109 -45z m95 15 c0 -17
-3 -19 -19 -10 -32 16 -34 30 -7 30 19 0 26 -5 26 -20z m-1302 -17 l47 -28
-54 -3 c-29 -2 -55 -1 -58 1 -5 6 7 57 14 57 2 0 25 -12 51 -27z m6602 -10
c265 -14 348 -15 635 -5 182 7 358 12 391 12 l61 0 7 -46 c3 -26 6 -102 6
-170 l0 -124 -262 0 c-145 0 -381 5 -525 10 -145 5 -492 12 -772 16 l-509 7
-1 149 c-1 81 -1 149 1 149 2 1 57 5 123 9 225 13 540 10 845 -7z m1320 -142
c0 -80 -4 -151 -8 -158 -12 -19 -60 -33 -113 -33 l-49 0 0 118 c0 64 -3 140
-6 169 l-7 52 74 3 c118 5 109 18 109 -151z m-2339 7 c0 -73 2 -143 5 -155 4
-21 0 -23 -41 -23 -52 0 -51 -5 -59 188 l-6 122 50 0 50 0 1 -132z m-4273 47
c11 -11 -18 -204 -39 -259 -22 -61 -34 -66 -95 -44 -26 9 -41 9 -73 -2 -32
-10 -49 -10 -83 -1 -35 10 -51 9 -85 -3 -38 -13 -46 -13 -83 1 -34 14 -51 15
-92 6 -41 -8 -61 -7 -100 5 -43 14 -53 14 -81 2 -21 -9 -59 -14 -108 -12 -50
1 -88 -3 -112 -13 -24 -10 -51 -13 -81 -9 -25 4 -65 1 -90 -5 -38 -9 -52 -8
-86 5 -33 13 -46 14 -67 5 -14 -6 -26 -10 -28 -9 -27 41 -70 193 -80 287 l-7
64 692 -6 c381 -3 695 -8 698 -12z m5227 -276 c237 -6 558 -14 715 -17 l285
-7 3 -146 3 -146 -243 -6 c-134 -3 -319 -2 -413 3 -93 5 -258 9 -365 9 -276 1
-772 20 -792 32 -10 5 -52 9 -93 9 l-75 0 0 53 c0 28 -3 89 -6 134 l-7 81 29
5 c58 8 540 7 959 -4z m-1032 -66 c4 -38 7 -98 7 -134 l0 -67 -81 -7 c-44 -4
-83 -4 -86 -1 -18 17 -32 254 -16 269 3 4 43 7 88 7 l82 0 6 -67z m2236 32
c36 -18 41 -37 41 -162 0 -117 7 -110 -110 -115 l-75 -3 -3 148 -3 147 61 0
c34 0 74 -6 89 -15z m-7078 -39 c35 -11 58 -12 93 -4 36 8 56 6 91 -6 40 -13
50 -13 86 -1 33 12 50 12 85 4 33 -9 55 -9 87 0 33 10 48 9 74 -1 l31 -13 -31
-35 -31 -35 -301 -10 c-408 -13 -706 -10 -742 9 -74 38 -81 91 -8 61 32 -14
46 -14 87 -4 28 6 71 9 97 5 34 -4 59 -1 86 10 28 11 56 14 104 10 47 -4 75
-2 96 8 39 18 41 18 96 2z m3953 -98 c3 -62 7 -202 8 -311 l3 -197 -232 0
c-215 0 -282 8 -200 24 50 10 215 77 220 90 2 6 -20 93 -50 194 -30 101 -53
185 -51 187 4 5 281 124 290 124 3 1 9 -50 12 -111z m-4359 -60 c160 -1 425 2
590 6 245 7 335 5 490 -8 105 -9 207 -19 228 -22 l38 -6 -1 -156 -2 -157 -141
-1 c-78 -1 -528 -4 -999 -8 l-857 -6 -3 88 c-2 48 -2 131 0 185 l3 99 182 -6
c100 -3 313 -7 472 -8z m8935 -83 c0 -6 -57 -30 -91 -39 -13 -3 -1 5 26 18 51
25 65 30 65 21z m-3302 -195 l3 -170 -85 0 c-101 0 -93 -13 -105 160 -7 104
-7 131 5 168 2 8 30 12 91 12 l88 0 3 -170z m98 156 c0 0 -3 -37 -7 -81 -4
-44 -8 -117 -8 -162 -1 -67 -4 -83 -16 -83 -12 0 -15 17 -17 88 0 48 -2 112
-4 142 -1 31 0 68 3 83 5 23 9 26 27 21 11 -4 21 -7 22 -8z m877 -16 c129 -6
352 -5 589 1 209 5 383 7 387 4 3 -4 7 -88 10 -187 l3 -181 -103 7 c-275 17
-547 26 -1024 31 -286 3 -562 8 -614 11 l-94 6 6 148 c4 81 9 155 13 163 5 14
43 15 312 11 169 -3 401 -9 515 -14z m1080 -12 c3 -13 9 -94 13 -180 l7 -158
-30 0 -31 0 -4 173 c-3 94 -3 175 -1 180 9 16 41 6 46 -15z m206 -2 c13 -13
17 -43 19 -149 4 -123 2 -134 -18 -159 -19 -25 -28 -28 -79 -28 l-58 0 -9 173
c-6 94 -8 176 -6 181 8 15 133 0 151 -18z m821 -31 c-94 -48 -146 -68 -126
-47 10 10 208 101 221 101 6 0 -37 -24 -95 -54z m262 -26 l23 -71 -24 -19
c-13 -10 -30 -19 -39 -19 -8 0 -73 -25 -144 -56 -72 -30 -131 -54 -133 -52 -7
7 -56 130 -53 133 19 16 315 153 335 154 6 1 22 -31 35 -70z m-5263 -129 c17
-52 29 -96 27 -97 -2 -2 -95 -2 -207 -1 l-204 3 130 67 c72 36 150 80 175 96
25 16 46 29 47 28 1 -1 15 -44 32 -96z m1129 64 c94 -6 102 -8 102 -27 0 -19
-4 -20 -107 -13 -60 3 -179 9 -265 13 -148 6 -158 7 -158 26 0 19 5 19 163 13
89 -3 208 -9 265 -12z m-1 -91 c107 -6 115 -11 89 -48 -13 -19 -26 -20 -256
-20 l-243 0 -10 28 c-19 59 -13 61 160 53 86 -3 203 -9 260 -13z m-2977 -43
c254 -5 479 -15 560 -24 321 -37 737 -55 1345 -61 330 -3 692 -1 805 4 122 5
288 6 410 0 113 -4 612 -13 1110 -19 498 -6 993 -16 1100 -21 314 -17 1233
-14 1435 5 228 20 476 29 494 17 11 -7 12 -31 5 -132 l-9 -124 -1990 -3
c-1094 -1 -2066 -3 -2160 -4 -111 -1 -196 4 -245 13 -61 11 -163 13 -535 9
-706 -8 -1075 -4 -1490 14 -702 30 -1073 35 -1945 28 -470 -4 -944 -7 -1053
-7 l-197 0 0 153 0 152 193 2 c105 1 401 1 657 0 256 -1 524 2 595 7 72 5 211
7 310 5 99 -3 371 -9 605 -14z m6740 -20 c7 -22 11 -42 9 -45 -3 -2 -57 -7
-120 -10 l-114 -6 100 50 c55 27 103 50 106 50 3 1 12 -17 19 -39z"/>
<path d="M8023 17569 c-15 -15 4 -69 23 -69 21 0 28 27 16 56 -13 26 -22 30
-39 13z"/>
<path d="M7891 17517 c-8 -10 -7 -19 3 -32 12 -16 16 -17 30 -6 12 10 13 18 5
32 -12 22 -22 24 -38 6z"/>
<path d="M6203 17431 c-64 -3 -117 -11 -124 -18 -15 -15 -3 -98 18 -119 14
-13 37 -14 167 -9 83 4 157 8 164 10 18 6 16 109 -3 125 -20 16 -80 19 -222
11z m187 -65 c0 -23 -2 -23 -127 -30 -99 -6 -128 -4 -134 6 -20 31 -7 34 224
46 33 2 37 -1 37 -22z"/>
<path d="M12594 17405 c-9 -21 12 -65 30 -65 20 0 26 23 13 50 -15 30 -35 37
-43 15z"/>
<path d="M12520 17385 c-10 -12 -10 -21 -1 -41 14 -31 35 -27 39 8 4 33 -20
54 -38 33z"/>
<path d="M12454 17345 c-9 -22 22 -53 37 -38 15 15 7 47 -14 51 -9 2 -20 -4
-23 -13z"/>
<path d="M8133 15620 c-42 -25 -42 -50 -2 -152 27 -68 35 -78 56 -78 27 0 80
27 87 45 5 15 -38 149 -58 180 -20 30 -40 31 -83 5z m80 -143 c4 -51 -17 -40
-41 21 -25 66 -27 79 -9 85 14 5 46 -62 50 -106z"/>
<path d="M12644 15496 c-59 -26 -65 -106 -10 -142 78 -51 173 78 100 135 -31
24 -47 25 -90 7z m64 -63 c4 -28 -32 -50 -54 -32 -18 15 -18 24 2 44 22 21 48
15 52 -12z"/>
<path d="M3694 15695 c-9 -22 4 -35 37 -35 22 0 29 5 29 19 0 30 -56 44 -66
16z"/>
<path d="M3692 15638 c-18 -18 -15 -27 15 -39 29 -11 58 6 45 27 -11 18 -47
25 -60 12z"/>
<path d="M3700 15565 c-16 -19 -5 -35 25 -35 26 0 39 22 22 39 -15 15 -32 14
-47 -4z"/>
<path d="M3703 15513 c-18 -6 -16 -32 2 -39 12 -5 13 -10 4 -20 -15 -19 -4
-44 20 -44 26 0 36 17 21 35 -10 12 -10 18 0 30 6 8 9 18 6 23 -7 12 -37 20
-53 15z"/>
<path d="M21330 14984 c-250 -7 -684 -20 -965 -28 -280 -9 -854 -25 -1275 -36
-421 -11 -1107 -29 -1525 -40 -715 -19 -1381 -32 -2225 -45 -375 -5 -746 -17
-1895 -60 -1162 -44 -1453 -54 -1805 -65 -795 -23 -2006 -32 -4657 -34 -2094
-2 -2835 -5 -2913 -14 -220 -25 -503 -63 -580 -78 -97 -18 -138 -34 -173 -70
-24 -23 -27 -35 -27 -90 0 -52 4 -67 25 -92 55 -66 135 -75 480 -52 223 14
428 12 850 -9 823 -43 912 -44 2480 -38 831 3 1695 10 1920 16 1423 37 1942
59 3026 126 661 42 950 54 1539 66 609 12 2450 6 3035 -11 1210 -34 4211 -17
9520 55 600 8 1437 19 1860 25 424 6 1067 14 1430 20 363 5 1018 14 1455 20
1269 16 1423 21 3460 100 701 27 1426 54 1610 60 184 6 466 16 625 22 192 7
1434 12 3670 14 3948 3 4161 5 5945 45 379 8 834 8 1945 -2 798 -8 1696 -14
1996 -14 l547 0 57 40 57 39 -28 24 c-70 56 -98 64 -395 97 l-220 25 -14197
-1 c-11299 -2 -14290 -5 -14652 -15z"/>
</g>
</svg>
